<mxfile host="app.diagrams.net" agent="Mozilla/5.0 (Windows NT 10.0; Win64; x64) AppleWebKit/537.36 (KHTML, like Gecko) Chrome/131.0.0.0 Safari/537.36" version="24.8.6">
  <diagram name="Side-1" id="7D56M-aNevtlSHsfVnHn">
    <mxGraphModel dx="989" dy="538" grid="1" gridSize="3" guides="1" tooltips="1" connect="1" arrows="1" fold="1" page="1" pageScale="1" pageWidth="827" pageHeight="1169" math="0" shadow="0">
      <root>
        <mxCell id="0" />
        <mxCell id="1" parent="0" />
        <mxCell id="foY62URVarV0IwtVlf6O-1" value="&lt;font style=&quot;font-size: 14px;&quot;&gt;IXMUX&lt;/font&gt;" style="swimlane;whiteSpace=wrap;html=1;startSize=30;" vertex="1" parent="1">
          <mxGeometry x="320" y="300" width="220" height="240" as="geometry" />
        </mxCell>
        <mxCell id="foY62URVarV0IwtVlf6O-6" value="i_DATA_IO" style="text;html=1;align=center;verticalAlign=middle;whiteSpace=wrap;rounded=0;" vertex="1" parent="foY62URVarV0IwtVlf6O-1">
          <mxGeometry x="140" y="82.5" width="80" height="30" as="geometry" />
        </mxCell>
        <mxCell id="foY62URVarV0IwtVlf6O-2" value="i_MASTER_CLK" style="text;html=1;align=center;verticalAlign=middle;whiteSpace=wrap;rounded=0;" vertex="1" parent="foY62URVarV0IwtVlf6O-1">
          <mxGeometry x="110" y="210" width="110" height="30" as="geometry" />
        </mxCell>
        <mxCell id="foY62URVarV0IwtVlf6O-5" value="o_CLK_IMEM" style="text;html=1;align=center;verticalAlign=middle;whiteSpace=wrap;rounded=0;" vertex="1" parent="foY62URVarV0IwtVlf6O-1">
          <mxGeometry y="210" width="95" height="30" as="geometry" />
        </mxCell>
        <mxCell id="foY62URVarV0IwtVlf6O-9" value="i_DATA_IMEM" style="text;html=1;align=center;verticalAlign=middle;whiteSpace=wrap;rounded=0;" vertex="1" parent="foY62URVarV0IwtVlf6O-1">
          <mxGeometry y="150" width="95" height="30" as="geometry" />
        </mxCell>
        <mxCell id="foY62URVarV0IwtVlf6O-10" value="o_DATA_IMEM" style="text;html=1;align=center;verticalAlign=middle;whiteSpace=wrap;rounded=0;" vertex="1" parent="foY62URVarV0IwtVlf6O-1">
          <mxGeometry y="180" width="100" height="30" as="geometry" />
        </mxCell>
        <mxCell id="foY62URVarV0IwtVlf6O-4" value="o_CLK_IVSA" style="text;html=1;align=center;verticalAlign=middle;whiteSpace=wrap;rounded=0;" vertex="1" parent="foY62URVarV0IwtVlf6O-1">
          <mxGeometry x="-1" y="30" width="90" height="30" as="geometry" />
        </mxCell>
        <mxCell id="foY62URVarV0IwtVlf6O-8" value="i_DATA_IVSA" style="text;html=1;align=center;verticalAlign=middle;whiteSpace=wrap;rounded=0;" vertex="1" parent="foY62URVarV0IwtVlf6O-1">
          <mxGeometry y="60" width="95" height="30" as="geometry" />
        </mxCell>
        <mxCell id="foY62URVarV0IwtVlf6O-7" value="o_DATA_IO" style="text;html=1;align=center;verticalAlign=middle;whiteSpace=wrap;rounded=0;" vertex="1" parent="foY62URVarV0IwtVlf6O-1">
          <mxGeometry x="135" y="32.5" width="85" height="30" as="geometry" />
        </mxCell>
        <mxCell id="foY62URVarV0IwtVlf6O-11" value="i_IX" style="text;html=1;align=center;verticalAlign=middle;whiteSpace=wrap;rounded=0;" vertex="1" parent="foY62URVarV0IwtVlf6O-1">
          <mxGeometry x="180" y="125" width="40" height="30" as="geometry" />
        </mxCell>
        <mxCell id="foY62URVarV0IwtVlf6O-3" value="i_CLK" style="text;html=1;align=center;verticalAlign=middle;whiteSpace=wrap;rounded=0;" vertex="1" parent="foY62URVarV0IwtVlf6O-1">
          <mxGeometry x="165" y="155" width="55" height="30" as="geometry" />
        </mxCell>
        <mxCell id="foY62URVarV0IwtVlf6O-18" value="IV_SAVER" style="swimlane;whiteSpace=wrap;html=1;startSize=30;" vertex="1" parent="1">
          <mxGeometry x="20" y="300" width="200" height="100" as="geometry" />
        </mxCell>
        <mxCell id="foY62URVarV0IwtVlf6O-20" value="i_CLK_IXMUX" style="text;html=1;align=center;verticalAlign=middle;whiteSpace=wrap;rounded=0;" vertex="1" parent="foY62URVarV0IwtVlf6O-18">
          <mxGeometry x="100" y="30" width="100" height="30" as="geometry" />
        </mxCell>
        <mxCell id="foY62URVarV0IwtVlf6O-19" value="o_DATA_IXMUX" style="text;html=1;align=center;verticalAlign=middle;whiteSpace=wrap;rounded=0;" vertex="1" parent="foY62URVarV0IwtVlf6O-18">
          <mxGeometry x="90" y="60" width="110" height="30" as="geometry" />
        </mxCell>
        <mxCell id="foY62URVarV0IwtVlf6O-21" value="INTERNAL_MEMORY" style="swimlane;whiteSpace=wrap;html=1;startSize=30;" vertex="1" parent="1">
          <mxGeometry x="20" y="420" width="200" height="120" as="geometry" />
        </mxCell>
        <mxCell id="foY62URVarV0IwtVlf6O-22" value="i_CLK_IXMUX" style="text;html=1;align=center;verticalAlign=middle;whiteSpace=wrap;rounded=0;" vertex="1" parent="foY62URVarV0IwtVlf6O-21">
          <mxGeometry x="105" y="90" width="95" height="30" as="geometry" />
        </mxCell>
        <mxCell id="foY62URVarV0IwtVlf6O-23" value="i_DATA_IXMUX" style="text;html=1;align=center;verticalAlign=middle;whiteSpace=wrap;rounded=0;" vertex="1" parent="foY62URVarV0IwtVlf6O-21">
          <mxGeometry x="95" y="60" width="105" height="30" as="geometry" />
        </mxCell>
        <mxCell id="foY62URVarV0IwtVlf6O-24" value="o_DATA_IXMUX" style="text;html=1;align=center;verticalAlign=middle;whiteSpace=wrap;rounded=0;" vertex="1" parent="foY62URVarV0IwtVlf6O-21">
          <mxGeometry x="95" y="30" width="105" height="30" as="geometry" />
        </mxCell>
        <mxCell id="foY62URVarV0IwtVlf6O-26" style="edgeStyle=orthogonalEdgeStyle;rounded=0;orthogonalLoop=1;jettySize=auto;html=1;" edge="1" parent="1" source="foY62URVarV0IwtVlf6O-24" target="foY62URVarV0IwtVlf6O-9">
          <mxGeometry relative="1" as="geometry" />
        </mxCell>
        <mxCell id="foY62URVarV0IwtVlf6O-27" style="edgeStyle=orthogonalEdgeStyle;rounded=0;orthogonalLoop=1;jettySize=auto;html=1;" edge="1" parent="1" source="foY62URVarV0IwtVlf6O-10" target="foY62URVarV0IwtVlf6O-23">
          <mxGeometry relative="1" as="geometry" />
        </mxCell>
        <mxCell id="foY62URVarV0IwtVlf6O-28" style="edgeStyle=orthogonalEdgeStyle;rounded=0;orthogonalLoop=1;jettySize=auto;html=1;" edge="1" parent="1" source="foY62URVarV0IwtVlf6O-5" target="foY62URVarV0IwtVlf6O-22">
          <mxGeometry relative="1" as="geometry" />
        </mxCell>
        <mxCell id="foY62URVarV0IwtVlf6O-29" style="edgeStyle=orthogonalEdgeStyle;rounded=0;orthogonalLoop=1;jettySize=auto;html=1;" edge="1" parent="1" source="foY62URVarV0IwtVlf6O-4" target="foY62URVarV0IwtVlf6O-20">
          <mxGeometry relative="1" as="geometry" />
        </mxCell>
        <mxCell id="foY62URVarV0IwtVlf6O-30" style="edgeStyle=orthogonalEdgeStyle;rounded=0;orthogonalLoop=1;jettySize=auto;html=1;" edge="1" parent="1" source="foY62URVarV0IwtVlf6O-19" target="foY62URVarV0IwtVlf6O-8">
          <mxGeometry relative="1" as="geometry" />
        </mxCell>
        <mxCell id="foY62URVarV0IwtVlf6O-33" style="edgeStyle=orthogonalEdgeStyle;rounded=0;orthogonalLoop=1;jettySize=auto;html=1;" edge="1" parent="1" source="foY62URVarV0IwtVlf6O-31" target="foY62URVarV0IwtVlf6O-2">
          <mxGeometry relative="1" as="geometry" />
        </mxCell>
        <mxCell id="foY62URVarV0IwtVlf6O-31" value="200 MHz" style="text;html=1;align=center;verticalAlign=middle;whiteSpace=wrap;rounded=0;" vertex="1" parent="1">
          <mxGeometry x="580" y="510" width="60" height="30" as="geometry" />
        </mxCell>
        <mxCell id="foY62URVarV0IwtVlf6O-34" value="IO Buffer" style="swimlane;whiteSpace=wrap;html=1;" vertex="1" parent="1">
          <mxGeometry x="615" y="300" width="120" height="130" as="geometry" />
        </mxCell>
        <mxCell id="foY62URVarV0IwtVlf6O-37" value="" style="triangle;whiteSpace=wrap;html=1;" vertex="1" parent="foY62URVarV0IwtVlf6O-34">
          <mxGeometry x="42.5" y="30" width="25" height="35" as="geometry" />
        </mxCell>
        <mxCell id="foY62URVarV0IwtVlf6O-38" value="" style="triangle;whiteSpace=wrap;html=1;direction=west;" vertex="1" parent="foY62URVarV0IwtVlf6O-34">
          <mxGeometry x="40" y="80" width="25" height="35" as="geometry" />
        </mxCell>
        <mxCell id="foY62URVarV0IwtVlf6O-41" style="edgeStyle=orthogonalEdgeStyle;rounded=0;orthogonalLoop=1;jettySize=auto;html=1;entryX=0.5;entryY=1;entryDx=0;entryDy=0;endArrow=none;endFill=0;" edge="1" parent="foY62URVarV0IwtVlf6O-34" source="foY62URVarV0IwtVlf6O-39" target="foY62URVarV0IwtVlf6O-38">
          <mxGeometry relative="1" as="geometry" />
        </mxCell>
        <mxCell id="foY62URVarV0IwtVlf6O-39" value="" style="ellipse;whiteSpace=wrap;html=1;aspect=fixed;" vertex="1" parent="foY62URVarV0IwtVlf6O-34">
          <mxGeometry x="50" y="58" width="5" height="5" as="geometry" />
        </mxCell>
        <mxCell id="foY62URVarV0IwtVlf6O-42" style="edgeStyle=orthogonalEdgeStyle;rounded=0;orthogonalLoop=1;jettySize=auto;html=1;" edge="1" parent="1" source="foY62URVarV0IwtVlf6O-38" target="foY62URVarV0IwtVlf6O-6">
          <mxGeometry relative="1" as="geometry" />
        </mxCell>
        <mxCell id="foY62URVarV0IwtVlf6O-43" style="edgeStyle=orthogonalEdgeStyle;rounded=0;orthogonalLoop=1;jettySize=auto;html=1;" edge="1" parent="1" source="foY62URVarV0IwtVlf6O-7" target="foY62URVarV0IwtVlf6O-37">
          <mxGeometry relative="1" as="geometry" />
        </mxCell>
        <mxCell id="foY62URVarV0IwtVlf6O-48" style="edgeStyle=orthogonalEdgeStyle;rounded=0;orthogonalLoop=1;jettySize=auto;html=1;entryX=0;entryY=0.5;entryDx=0;entryDy=0;" edge="1" parent="1" source="foY62URVarV0IwtVlf6O-45" target="foY62URVarV0IwtVlf6O-38">
          <mxGeometry relative="1" as="geometry">
            <Array as="points">
              <mxPoint x="715" y="348" />
              <mxPoint x="715" y="398" />
            </Array>
          </mxGeometry>
        </mxCell>
        <mxCell id="foY62URVarV0IwtVlf6O-45" value="IO PORT - MCU" style="text;html=1;align=center;verticalAlign=middle;whiteSpace=wrap;rounded=0;" vertex="1" parent="1">
          <mxGeometry x="795" y="332.5" width="100" height="30" as="geometry" />
        </mxCell>
        <mxCell id="foY62URVarV0IwtVlf6O-46" style="edgeStyle=orthogonalEdgeStyle;rounded=0;orthogonalLoop=1;jettySize=auto;html=1;" edge="1" parent="1" source="foY62URVarV0IwtVlf6O-37" target="foY62URVarV0IwtVlf6O-45">
          <mxGeometry relative="1" as="geometry" />
        </mxCell>
        <mxCell id="foY62URVarV0IwtVlf6O-51" style="edgeStyle=orthogonalEdgeStyle;rounded=0;orthogonalLoop=1;jettySize=auto;html=1;" edge="1" parent="1" source="foY62URVarV0IwtVlf6O-49">
          <mxGeometry relative="1" as="geometry">
            <mxPoint x="668" y="375" as="targetPoint" />
          </mxGeometry>
        </mxCell>
        <mxCell id="foY62URVarV0IwtVlf6O-49" value="RW - MCU" style="text;html=1;align=center;verticalAlign=middle;whiteSpace=wrap;rounded=0;" vertex="1" parent="1">
          <mxGeometry x="795" y="360" width="75" height="30" as="geometry" />
        </mxCell>
        <mxCell id="foY62URVarV0IwtVlf6O-54" style="edgeStyle=orthogonalEdgeStyle;rounded=0;orthogonalLoop=1;jettySize=auto;html=1;" edge="1" parent="1" source="foY62URVarV0IwtVlf6O-52" target="foY62URVarV0IwtVlf6O-11">
          <mxGeometry relative="1" as="geometry" />
        </mxCell>
        <mxCell id="foY62URVarV0IwtVlf6O-52" value="IX - MCU" style="text;html=1;align=center;verticalAlign=middle;whiteSpace=wrap;rounded=0;" vertex="1" parent="1">
          <mxGeometry x="795" y="425" width="70" height="30" as="geometry" />
        </mxCell>
        <mxCell id="foY62URVarV0IwtVlf6O-55" style="edgeStyle=orthogonalEdgeStyle;rounded=0;orthogonalLoop=1;jettySize=auto;html=1;" edge="1" parent="1" source="foY62URVarV0IwtVlf6O-53" target="foY62URVarV0IwtVlf6O-3">
          <mxGeometry relative="1" as="geometry" />
        </mxCell>
        <mxCell id="foY62URVarV0IwtVlf6O-53" value="CLK - MCU" style="text;html=1;align=center;verticalAlign=middle;whiteSpace=wrap;rounded=0;" vertex="1" parent="1">
          <mxGeometry x="795" y="455" width="80" height="30" as="geometry" />
        </mxCell>
        <mxCell id="foY62URVarV0IwtVlf6O-56" value="" style="endArrow=none;dashed=1;html=1;rounded=0;" edge="1" parent="1">
          <mxGeometry width="50" height="50" relative="1" as="geometry">
            <mxPoint x="775" y="510" as="sourcePoint" />
            <mxPoint x="775" y="290" as="targetPoint" />
          </mxGeometry>
        </mxCell>
        <mxCell id="foY62URVarV0IwtVlf6O-57" value="" style="endArrow=none;html=1;rounded=0;" edge="1" parent="1">
          <mxGeometry width="50" height="50" relative="1" as="geometry">
            <mxPoint x="573" y="403" as="sourcePoint" />
            <mxPoint x="583" y="393" as="targetPoint" />
          </mxGeometry>
        </mxCell>
        <mxCell id="foY62URVarV0IwtVlf6O-58" value="" style="endArrow=none;html=1;rounded=0;" edge="1" parent="1">
          <mxGeometry width="50" height="50" relative="1" as="geometry">
            <mxPoint x="570" y="352.5" as="sourcePoint" />
            <mxPoint x="580" y="342.5" as="targetPoint" />
          </mxGeometry>
        </mxCell>
        <mxCell id="foY62URVarV0IwtVlf6O-61" value="" style="endArrow=none;html=1;rounded=0;" edge="1" parent="1">
          <mxGeometry width="50" height="50" relative="1" as="geometry">
            <mxPoint x="750" y="352.5" as="sourcePoint" />
            <mxPoint x="760" y="342.5" as="targetPoint" />
          </mxGeometry>
        </mxCell>
        <mxCell id="foY62URVarV0IwtVlf6O-63" value="1&lt;span style=&quot;background-color: initial;&quot;&gt;6&lt;/span&gt;" style="text;html=1;align=center;verticalAlign=middle;whiteSpace=wrap;rounded=0;" vertex="1" parent="1">
          <mxGeometry x="558" y="332.5" width="18" height="15" as="geometry" />
        </mxCell>
        <mxCell id="foY62URVarV0IwtVlf6O-64" value="1&lt;span style=&quot;background-color: initial;&quot;&gt;6&lt;/span&gt;" style="text;html=1;align=center;verticalAlign=middle;whiteSpace=wrap;rounded=0;" vertex="1" parent="1">
          <mxGeometry x="562" y="381" width="18" height="15" as="geometry" />
        </mxCell>
        <mxCell id="foY62URVarV0IwtVlf6O-65" value="1&lt;span style=&quot;background-color: initial;&quot;&gt;6&lt;/span&gt;" style="text;html=1;align=center;verticalAlign=middle;whiteSpace=wrap;rounded=0;" vertex="1" parent="1">
          <mxGeometry x="738" y="332.5" width="18" height="15" as="geometry" />
        </mxCell>
        <mxCell id="foY62URVarV0IwtVlf6O-66" value="" style="endArrow=none;html=1;rounded=0;" edge="1" parent="1">
          <mxGeometry width="50" height="50" relative="1" as="geometry">
            <mxPoint x="270" y="380" as="sourcePoint" />
            <mxPoint x="280" y="370" as="targetPoint" />
          </mxGeometry>
        </mxCell>
        <mxCell id="foY62URVarV0IwtVlf6O-67" value="1&lt;span style=&quot;background-color: initial;&quot;&gt;6&lt;/span&gt;" style="text;html=1;align=center;verticalAlign=middle;whiteSpace=wrap;rounded=0;" vertex="1" parent="1">
          <mxGeometry x="258" y="360" width="18" height="15" as="geometry" />
        </mxCell>
        <mxCell id="foY62URVarV0IwtVlf6O-68" value="" style="endArrow=none;html=1;rounded=0;" edge="1" parent="1">
          <mxGeometry width="50" height="50" relative="1" as="geometry">
            <mxPoint x="270" y="470" as="sourcePoint" />
            <mxPoint x="280" y="460" as="targetPoint" />
          </mxGeometry>
        </mxCell>
        <mxCell id="foY62URVarV0IwtVlf6O-69" value="1&lt;span style=&quot;background-color: initial;&quot;&gt;6&lt;/span&gt;" style="text;html=1;align=center;verticalAlign=middle;whiteSpace=wrap;rounded=0;" vertex="1" parent="1">
          <mxGeometry x="258" y="450" width="18" height="15" as="geometry" />
        </mxCell>
        <mxCell id="foY62URVarV0IwtVlf6O-70" value="" style="endArrow=none;html=1;rounded=0;" edge="1" parent="1">
          <mxGeometry width="50" height="50" relative="1" as="geometry">
            <mxPoint x="270" y="500" as="sourcePoint" />
            <mxPoint x="280" y="490" as="targetPoint" />
          </mxGeometry>
        </mxCell>
        <mxCell id="foY62URVarV0IwtVlf6O-71" value="1&lt;span style=&quot;background-color: initial;&quot;&gt;6&lt;/span&gt;" style="text;html=1;align=center;verticalAlign=middle;whiteSpace=wrap;rounded=0;" vertex="1" parent="1">
          <mxGeometry x="258" y="480" width="18" height="15" as="geometry" />
        </mxCell>
      </root>
    </mxGraphModel>
  </diagram>
</mxfile>
